# xmcd CD database file generated by OrangeCD 6.0
#
# Track frame offsets:
#	150
#	13231
#	27128
#	41342
#	56118
#	65804
#	79738
#	94498
#	109728
#	124693
#	137331
#	148676
#	157392
#	170606
#	184328
#	199603
#	214140
#	227112
#	239315
#	253565
#	265431
#	275762
#	287046
#	300467
#	311385
#
# Disc length: 4323 seconds
#
# Revision: 0
# Processed by: cddbd v1.5.2PL0 Copyright (c) Steve Scherf et al.
# Submitted via: OrangeCD 6.0
#
DISCID=7a10e119
DTITLE=Various Artist - Nashville Mandolins Play Their 100 Best
DYEAR=2005
DGENRE=Instrumental
TTITLE0=By The Light Of The Silvery Moon
TTITLE1=Life's A Railway To Heaven
TTITLE2=Wildwood Flower
TTITLE3=Wayfaring Stranger
TTITLE4=Dixie
TTITLE5=Angel Band
TTITLE6=Gold Rush
TTITLE7=Great Speckled Bird
TTITLE8=Never Will Marry
TTITLE9=In The Shade Of The Old Apple Tree
TTITLE10=Jesus Loves Me
TTITLE11=Old Spinning Wheel
TTITLE12=Ragtime Cowboy Joe
TTITLE13=Onward Christian Solders
TTITLE14=Rose Of Sharon
TTITLE15=Storm On The Ocean
TTITLE16=Whispering Hope
TTITLE17=Barbara Polka
TTITLE18=Down To The River To Pray
TTITLE19=Sweet Hour Of Prayer
TTITLE20=Take Me Out To The Ballgame
TTITLE21=When I Grow Too Old To Dream
TTITLE22=Cherokee Shuffle
TTITLE23=Big Rock Candy Mountain
TTITLE24=I Love To Tell The Story
EXTD=
EXTT0=
EXTT1=
EXTT2=
EXTT3=
EXTT4=
EXTT5=
EXTT6=
EXTT7=
EXTT8=
EXTT9=
EXTT10=
EXTT11=
EXTT12=
EXTT13=
EXTT14=
EXTT15=
EXTT16=
EXTT17=
EXTT18=
EXTT19=
EXTT20=
EXTT21=
EXTT22=
EXTT23=
EXTT24=
PLAYORDER=
